<svg xmlns="http://www.w3.org/2000/svg" xmlns:xlink="http://www.w3.org/1999/xlink" viewBox="0 0 877.73 117"><defs><style>.cls-1{fill:url(#linear-gradient);}.cls-2{fill:url(#linear-gradient-2);}</style><linearGradient id="linear-gradient" x1="12.47" y1="19.68" x2="93.95" y2="113.04" gradientUnits="userSpaceOnUse"><stop offset="0" stop-color="#0a96f8"/><stop offset="1" stop-color="#0f68d3"/></linearGradient><linearGradient id="linear-gradient-2" x1="124.08" y1="61.5" x2="877.73" y2="61.5" xlink:href="#linear-gradient"/></defs><g id="Layer_2" data-name="Layer 2"><g id="Layer_1-2" data-name="Layer 1"><path class="cls-1" d="M92.56,8.47H83.47a8.47,8.47,0,0,0-16.94,0H33a8.47,8.47,0,0,0-16.94,0H7.52A7.52,7.52,0,0,0,0,16v93.49A7.52,7.52,0,0,0,7.52,117h85a7.52,7.52,0,0,0,7.52-7.52V16A7.52,7.52,0,0,0,92.56,8.47ZM78.68,91.27H20.34a4.18,4.18,0,0,1,0-8.36H78.68a4.18,4.18,0,0,1,0,8.36Zm0-16.39H20.34a4.18,4.18,0,1,1,0-8.35H78.68a4.18,4.18,0,1,1,0,8.35Zm0-16.38H20.34a4.18,4.18,0,1,1,0-8.36H78.68a4.18,4.18,0,0,1,0,8.36Zm0-16.38H20.34a4.18,4.18,0,0,1,0-8.36H78.68a4.18,4.18,0,0,1,0,8.36Z"/><path class="cls-2" d="M124.08,19.37h28.74a49.87,49.87,0,0,1,17.82,3.08A38.82,38.82,0,0,1,184.3,31a38.17,38.17,0,0,1,8.6,13.2,45.49,45.49,0,0,1,3,16.85A46.5,46.5,0,0,1,193,77.87,37.53,37.53,0,0,1,184.67,91a36.9,36.9,0,0,1-13.48,8.48,51,51,0,0,1-18,3H124.08ZM152,85.07a25.63,25.63,0,0,0,7.94-1.2,21.54,21.54,0,0,0,6.57-3.4,23.29,23.29,0,0,0,4.92-5.14,22.84,22.84,0,0,0,3.14-6.6,26.91,26.91,0,0,0,1.08-7.66,26.51,26.51,0,0,0-2.88-12.4,21.71,21.71,0,0,0-8-8.68,21.48,21.48,0,0,0-11.42-3.14h-9.94V85.07Zm108.55-6.29h-39a11.3,11.3,0,0,0,4.71,7.29,15.1,15.1,0,0,0,8.83,2.59q7.93,0,13.88-6.91l9.71,10.91a27.63,27.63,0,0,1-10.45,7.92,36.13,36.13,0,0,1-15.09,3,31.79,31.79,0,0,1-11.79-2.17A27,27,0,0,1,205.66,86a31.57,31.57,0,0,1-2.28-12.08,32,32,0,0,1,2.2-11.94,27.81,27.81,0,0,1,6-9.43,27.37,27.37,0,0,1,9.22-6.11,30.12,30.12,0,0,1,11.63-2.23,29.29,29.29,0,0,1,14.74,3.71,26.09,26.09,0,0,1,10.14,10.4A31.11,31.11,0,0,1,261,73.35,43.28,43.28,0,0,1,260.51,78.78ZM225.43,61.16a11,11,0,0,0-3.83,6.71L243,67.76a13.75,13.75,0,0,0-2-4.8,9.33,9.33,0,0,0-3.54-3.09,10.78,10.78,0,0,0-4.86-1.08A11.18,11.18,0,0,0,225.43,61.16Zm40.22,34,8.68-12.28q6.92,6.51,15,6.51a9.09,9.09,0,0,0,2.8-.37,3.7,3.7,0,0,0,1.74-1.09,2.59,2.59,0,0,0,.6-1.74c0-.76-.62-1.49-1.86-2.2a40.47,40.47,0,0,0-6.94-2.65c-1.45-.46-2.78-.93-4-1.4A35.85,35.85,0,0,1,278,78.18a26.35,26.35,0,0,1-3.34-2.08,18.82,18.82,0,0,1-2.77-2.55,15.29,15.29,0,0,1-2.2-3.11,15,15,0,0,1-1.37-3.74,19.43,19.43,0,0,1-.49-4.49,16.44,16.44,0,0,1,2.86-9.57,18.11,18.11,0,0,1,7.71-6.31,26.56,26.56,0,0,1,10.91-2.17,37,37,0,0,1,7.88.8,31.82,31.82,0,0,1,7,2.37,39.72,39.72,0,0,1,6.69,4.09L302.15,64.5A21.18,21.18,0,0,0,295.76,60a16.18,16.18,0,0,0-6.52-1.54,5.75,5.75,0,0,0-2.8.69,2.34,2.34,0,0,0-1.25,2.22c0,.73.58,1.47,1.74,2.23a29.19,29.19,0,0,0,5.74,2.57l3.63,1.35c1,.36,2.05.79,3.23,1.28s2.16.94,2.94,1.34,1.62.87,2.51,1.4a15.27,15.27,0,0,1,2.2,1.55A20.44,20.44,0,0,1,309,74.87a8.67,8.67,0,0,1,1.43,2,19.61,19.61,0,0,1,1,2.31A13.22,13.22,0,0,1,312,82a23.94,23.94,0,0,1,.2,3.17,18.67,18.67,0,0,1-1.43,7.4,16.22,16.22,0,0,1-4.23,5.83,19.62,19.62,0,0,1-7.22,3.88,33.41,33.41,0,0,1-10.14,1.4Q275.36,103.63,265.65,95.12Zm61.87,3.6q-4.57-4.86-4.57-14.23V60.16h-6.46V45.25H323V27L341.23,25V45.25h13.88V60.16H341.23V81.07a10.14,10.14,0,0,0,.94,4.79,3.54,3.54,0,0,0,3.4,1.72,12.37,12.37,0,0,0,5.66-1.43l4.51,13.48a32,32,0,0,1-7,2.94,33.45,33.45,0,0,1-9,1Q332.09,103.57,327.52,98.72ZM400,44.22V63.93q-1.65-.12-4.29-.12a14.57,14.57,0,0,0-7.22,1.69A10.69,10.69,0,0,0,384,70.1a14.75,14.75,0,0,0-1.45,6.68v25.71H364.25V45.25h18.29V52.9h.22a23.85,23.85,0,0,1,4.83-4.8,20.91,20.91,0,0,1,5.63-2.94,19,19,0,0,1,6.11-1A2.16,2.16,0,0,1,400,44.22Zm21.65,57.21a28.25,28.25,0,0,1-9.8-6.11,27.45,27.45,0,0,1-6.28-9.43,32.8,32.8,0,0,1,0-23.93,27.45,27.45,0,0,1,6.28-9.43,28.61,28.61,0,0,1,9.8-6.14,34.53,34.53,0,0,1,12.57-2.23,33.59,33.59,0,0,1,16,3.74,27.09,27.09,0,0,1,10.94,10.54A30.6,30.6,0,0,1,465,73.93a30.43,30.43,0,0,1-3.91,15.45,27.08,27.08,0,0,1-10.94,10.51,33.59,33.59,0,0,1-16,3.74A35,35,0,0,1,421.61,101.43ZM443,83.55a13.49,13.49,0,0,0,3.57-9.62,13.56,13.56,0,0,0-3.52-9.69,12.48,12.48,0,0,0-17.85,0,13.67,13.67,0,0,0-3.48,9.66,13.58,13.58,0,0,0,3.54,9.59,12.22,12.22,0,0,0,17.74,0Zm28.08-64.18h18.33L481.37,51H467.6Zm22.22,75.75L502,82.84q6.92,6.51,15,6.51a9.13,9.13,0,0,0,2.8-.37,3.7,3.7,0,0,0,1.74-1.09,2.59,2.59,0,0,0,.6-1.74c0-.76-.62-1.49-1.86-2.2a40.82,40.82,0,0,0-6.94-2.65c-1.45-.46-2.78-.93-4-1.4a35.85,35.85,0,0,1-3.71-1.72,26.35,26.35,0,0,1-3.34-2.08,18.82,18.82,0,0,1-2.77-2.55,15.29,15.29,0,0,1-2.2-3.11A15,15,0,0,1,496,66.7a19.43,19.43,0,0,1-.49-4.49,16.44,16.44,0,0,1,2.86-9.57,18.11,18.11,0,0,1,7.71-6.31A26.56,26.56,0,0,1,517,44.16a37,37,0,0,1,7.88.8,32,32,0,0,1,7,2.37,39.72,39.72,0,0,1,6.69,4.09L529.81,64.5A21.18,21.18,0,0,0,523.42,60a16.18,16.18,0,0,0-6.52-1.54,5.75,5.75,0,0,0-2.8.69,2.34,2.34,0,0,0-1.25,2.22c0,.73.58,1.47,1.74,2.23a28.91,28.91,0,0,0,5.74,2.57L524,67.56c1,.36,2,.79,3.23,1.28s2.16.94,2.94,1.34,1.62.87,2.51,1.4a15.27,15.27,0,0,1,2.2,1.55,20.44,20.44,0,0,1,1.77,1.74,8.67,8.67,0,0,1,1.43,2,19.61,19.61,0,0,1,1,2.31,13.22,13.22,0,0,1,.66,2.74,23.94,23.94,0,0,1,.2,3.17,18.67,18.67,0,0,1-1.43,7.4,16.22,16.22,0,0,1-4.23,5.83,19.62,19.62,0,0,1-7.22,3.88,33.5,33.5,0,0,1-10.14,1.4Q503,103.63,493.31,95.12ZM650,19.37v83.12H629.79L598.25,52.67H598v49.82H578.55V19.37h19.59l32.05,51.07h.23V19.37Zm28.85,82.06a28.16,28.16,0,0,1-9.8-6.11,27.48,27.48,0,0,1-6.29-9.43,32.94,32.94,0,0,1,0-23.93A27.48,27.48,0,0,1,669,52.53a28.52,28.52,0,0,1,9.8-6.14,34.44,34.44,0,0,1,12.56-2.23,33.56,33.56,0,0,1,16,3.74,27.09,27.09,0,0,1,10.94,10.54,30.5,30.5,0,0,1,3.91,15.49,30.33,30.33,0,0,1-3.91,15.45,27.08,27.08,0,0,1-10.94,10.51,33.56,33.56,0,0,1-16,3.74A34.86,34.86,0,0,1,678.81,101.43ZM700.2,83.55a13.49,13.49,0,0,0,3.57-9.62,13.59,13.59,0,0,0-3.51-9.69,12.5,12.5,0,0,0-17.86,0,13.67,13.67,0,0,0-3.48,9.66,13.58,13.58,0,0,0,3.54,9.59,12.22,12.22,0,0,0,17.74,0Zm37.73,15.17q-4.56-4.86-4.57-14.23V60.16h-6.45V45.25h6.45V27L751.65,25V45.25h13.88V60.16H751.65V81.07a10,10,0,0,0,.94,4.79,3.53,3.53,0,0,0,3.4,1.72,12.33,12.33,0,0,0,5.65-1.43l4.52,13.48a32.44,32.44,0,0,1-7,2.94,33.48,33.48,0,0,1-9,1Q742.51,103.57,737.93,98.72ZM826,78.78h-39a11.35,11.35,0,0,0,4.72,7.29,15.09,15.09,0,0,0,8.82,2.59q7.95,0,13.89-6.91l9.71,10.91a27.67,27.67,0,0,1-10.46,7.92,36.08,36.08,0,0,1-15.08,3,31.79,31.79,0,0,1-11.79-2.17A27,27,0,0,1,771.18,86a31.57,31.57,0,0,1-2.28-12.08,32,32,0,0,1,2.2-11.94,27.66,27.66,0,0,1,6-9.43,27.37,27.37,0,0,1,9.22-6.11A30.12,30.12,0,0,1,798,44.16a29.32,29.32,0,0,1,14.74,3.71,26.09,26.09,0,0,1,10.14,10.4,31.22,31.22,0,0,1,3.62,15.08A43,43,0,0,1,826,78.78ZM791,61.16a11,11,0,0,0-3.83,6.71l21.43-.11a13.75,13.75,0,0,0-2-4.8A9.29,9.29,0,0,0,803,59.87a10.7,10.7,0,0,0-4.85-1.08A11.18,11.18,0,0,0,791,61.16Zm40.22,34,8.68-12.28q6.92,6.51,15,6.51a9.13,9.13,0,0,0,2.8-.37,3.7,3.7,0,0,0,1.74-1.09,2.59,2.59,0,0,0,.6-1.74c0-.76-.62-1.49-1.86-2.2a40.82,40.82,0,0,0-6.94-2.65c-1.45-.46-2.78-.93-4-1.4a34.91,34.91,0,0,1-3.71-1.72,26.35,26.35,0,0,1-3.34-2.08,18.88,18.88,0,0,1-2.78-2.55,15.64,15.64,0,0,1-2.19-3.11,15.43,15.43,0,0,1-1.38-3.74,20,20,0,0,1-.48-4.49,16.44,16.44,0,0,1,2.86-9.57,18.11,18.11,0,0,1,7.71-6.31,26.53,26.53,0,0,1,10.91-2.17,37,37,0,0,1,7.88.8,32,32,0,0,1,7,2.37,39.72,39.72,0,0,1,6.69,4.09L867.67,64.5A21.18,21.18,0,0,0,861.28,60a16.18,16.18,0,0,0-6.52-1.54,5.72,5.72,0,0,0-2.8.69,2.34,2.34,0,0,0-1.25,2.22c0,.73.58,1.47,1.74,2.23a28.91,28.91,0,0,0,5.74,2.57l3.63,1.35c1,.36,2,.79,3.23,1.28s2.16.94,2.94,1.34,1.62.87,2.51,1.4a15.27,15.27,0,0,1,2.2,1.55,20.44,20.44,0,0,1,1.77,1.74,8.67,8.67,0,0,1,1.43,2,19.61,19.61,0,0,1,1,2.31,13.89,13.89,0,0,1,.66,2.74,23.94,23.94,0,0,1,.2,3.17,18.67,18.67,0,0,1-1.43,7.4,16.22,16.22,0,0,1-4.23,5.83,19.62,19.62,0,0,1-7.22,3.88,33.5,33.5,0,0,1-10.14,1.4Q840.88,103.63,831.17,95.12Z"/></g></g></svg>