<?xml version="1.0" standalone="no"?>
<!DOCTYPE svg PUBLIC "-//W3C//DTD SVG 20010904//EN"
 "http://www.w3.org/TR/2001/REC-SVG-20010904/DTD/svg10.dtd">
<svg version="1.0" xmlns="http://www.w3.org/2000/svg"
 width="512.000000pt" height="512.000000pt" viewBox="0 0 512.000000 512.000000"
 preserveAspectRatio="xMidYMid meet">
<metadata>
Created by potrace 1.11, written by Peter Selinger 2001-2013
</metadata>
<g transform="translate(0.000000,512.000000) scale(0.100000,-0.100000)"
fill="#000000" stroke="none">
<path d="M4244 5100 c-93 -24 -134 -42 -224 -97 -64 -39 -249 -220 -1213
-1182 l-1138 -1136 -30 -100 c-33 -110 -38 -125 -71 -235 -12 -41 -23 -77 -23
-80 -4 -18 -33 -115 -71 -240 -25 -80 -52 -170 -61 -200 -9 -30 -27 -89 -41
-130 -13 -41 -25 -81 -27 -90 -2 -8 -13 -48 -25 -88 -31 -102 -15 -164 54
-199 48 -25 84 -18 295 51 108 35 277 89 376 121 99 31 241 76 315 100 74 24
146 46 160 50 42 11 134 48 146 60 6 5 258 253 559 550 302 297 614 605 694
684 473 466 1008 1003 1041 1046 77 100 130 212 149 315 13 71 6 202 -13 263
-75 236 -298 458 -535 533 -74 24 -233 26 -317 4z m288 -336 c71 -36 195 -162
233 -238 44 -87 43 -168 -4 -262 -32 -63 -83 -117 -556 -589 -287 -286 -679
-675 -871 -863 -192 -189 -453 -447 -580 -573 -127 -126 -234 -227 -237 -224
-4 3 -5 2 -3 -1 13 -17 -41 -46 -154 -82 -370 -120 -446 -144 -455 -146 -5 -1
-47 -15 -93 -30 -46 -15 -86 -26 -88 -23 -3 3 2 29 11 59 9 29 23 73 30 98 7
25 52 175 99 335 l87 290 1082 1080 c595 594 1100 1094 1122 1111 125 97 259
118 377 58z"/>
<path d="M327 4643 c-4 -3 -25 -7 -49 -10 -99 -8 -198 -82 -247 -183 l-26 -55
0 -2080 0 -2080 25 -50 c31 -64 91 -124 155 -155 l50 -25 1920 0 1920 0 46 21
c86 40 165 132 186 218 3 11 6 464 7 1006 0 565 5 991 10 999 6 9 5 12 -1 8
-6 -4 -9 64 -9 193 1 110 -1 200 -4 200 -7 0 -58 -47 -205 -189 l-110 -106 0
-1018 0 -1017 -1837 0 -1838 0 0 1998 0 1999 1122 0 1122 0 85 81 c184 173
238 232 222 236 -9 2 -219 4 -467 3 -248 0 -455 3 -461 6 -6 4 -13 4 -17 0 -8
-8 -777 -10 -782 -1 -2 3 -17 3 -32 0 -34 -9 -755 -7 -769 1 -6 4 -13 4 -16 0z"/>
</g>
</svg>
