<?xml version="1.0" standalone="no"?>
<!DOCTYPE svg PUBLIC "-//W3C//DTD SVG 20010904//EN"
 "http://www.w3.org/TR/2001/REC-SVG-20010904/DTD/svg10.dtd">
<svg version="1.0" xmlns="http://www.w3.org/2000/svg"
 width="1024.000000pt" height="1024.000000pt" viewBox="0 0 1024.000000 1024.000000"
 preserveAspectRatio="xMidYMid meet">
<metadata>
Created by potrace 1.11, written by Peter Selinger 2001-2013
</metadata>
<g transform="translate(0.000000,1024.000000) scale(0.100000,-0.100000)"
fill="#000000" stroke="none">
<path d="M2990 10004 c-286 -59 -489 -283 -518 -569 l-7 -69 -375 -2 c-382 -1
-409 -4 -515 -43 -89 -33 -156 -79 -235 -161 -73 -75 -117 -150 -151 -260
l-24 -75 0 -3740 c0 -3109 2 -3749 14 -3795 27 -111 87 -216 169 -299 104
-105 223 -168 355 -188 23 -4 1567 -7 3432 -7 3189 1 3394 2 3455 18 184 49
342 177 418 336 78 166 72 -210 69 3955 l-2 3730 -23 70 c-51 150 -139 269
-260 348 -158 103 -204 111 -659 112 l-363 0 0 46 c0 163 -128 378 -290 489
-112 76 -206 108 -341 114 -361 18 -681 -262 -677 -594 l1 -55 -1314 -1 c-723
0 -1320 2 -1327 4 -7 3 -11 10 -9 16 6 16 -11 123 -29 174 -62 184 -212 336
-409 411 -41 16 -75 28 -75 25 0 -2 -12 1 -27 7 -43 16 -210 18 -283 3z m4464
-2648 c151 -29 285 -194 273 -336 -9 -110 -95 -227 -205 -278 l-57 -27 -2365
0 -2365 0 -67 33 c-119 58 -190 163 -194 287 -5 152 85 273 235 314 53 14 278
16 2382 15 1278 0 2342 -4 2363 -8z m68 -1328 c69 -32 145 -107 179 -174 35
-70 33 -179 -3 -249 -35 -68 -111 -138 -182 -171 l-58 -26 -2353 0 c-2512 -1
-2385 -3 -2466 48 -85 53 -158 163 -167 250 -13 131 83 272 224 329 l54 22
2357 -1 2358 -1 57 -27z m-76 -1281 c95 -15 205 -101 251 -196 38 -76 39 -173
3 -246 -32 -65 -113 -146 -175 -176 l-50 -23 -2375 -1 -2375 0 -50 25 c-27 13
-75 50 -106 81 -127 129 -131 289 -9 422 70 77 134 109 234 116 96 7 4607 5
4652 -2z m53 -1361 c128 -48 222 -171 227 -297 3 -55 -2 -76 -25 -125 -46 -97
-128 -168 -227 -196 -41 -12 -415 -14 -2379 -13 -1282 1 -2345 5 -2364 9 -107
26 -215 130 -250 243 -17 53 -10 146 17 205 41 93 138 170 234 186 22 4 1094
7 2382 6 2161 -1 2344 -2 2385 -18z"/>
</g>
</svg>
